<svg width="40" height="40" viewBox="0 0 40 40" fill="none" xmlns="http://www.w3.org/2000/svg">
<rect width="40" height="40" rx="20" fill="#F04923"/>
<path d="M17.777 20.9861L17.6306 15.6464C17.6306 15.4804 17.4939 15.3535 17.3377 15.3535C17.1718 15.3535 17.0449 15.4804 17.0449 15.6464L16.9082 20.9861L17.0449 23.5534C17.0449 23.7194 17.1815 23.8463 17.3377 23.8463C17.5037 23.8463 17.6306 23.7194 17.6306 23.5534L17.777 20.9861Z" fill="white"/>
<path d="M16.7223 20.986L16.5564 15.4413C16.5564 15.2851 16.4295 15.168 16.283 15.168C16.1366 15.168 16.0097 15.2851 16.0097 15.4413L15.8633 20.9762L16.0097 23.5631C16.0097 23.7193 16.1366 23.8365 16.283 23.8365C16.4295 23.8365 16.5564 23.7193 16.5564 23.5631L16.7223 20.986Z" fill="white"/>
<path d="M14.449 15.4804C14.4392 15.3535 14.3416 15.2461 14.2147 15.2461C14.0878 15.2461 13.9902 15.3437 13.9804 15.4804L13.8145 20.9763L13.9804 23.6022C13.9804 23.7291 14.0878 23.8267 14.2147 23.8267C14.3416 23.8267 14.4392 23.7291 14.449 23.5924L14.6442 20.9665L14.449 15.4804Z" fill="white"/>
<path d="M15.5017 15.2948C15.5017 15.1582 15.3846 15.041 15.2479 15.041C15.1112 15.041 14.9941 15.1484 14.9941 15.2948L14.8379 20.9762L14.9941 23.5826C14.9941 23.7193 15.1112 23.8364 15.2479 23.8364C15.3846 23.8364 15.4919 23.729 15.5017 23.5826L15.6774 20.9762L15.5017 15.2948Z" fill="white"/>
<path d="M10.1815 23.7673C10.2596 23.7673 10.3182 23.7087 10.3279 23.6209L10.5817 20.9754L10.3279 18.2421C10.3182 18.164 10.2596 18.0957 10.1815 18.0957C10.1034 18.0957 10.0448 18.1543 10.0351 18.2421L9.81055 20.9754L10.0351 23.6209C10.0351 23.7087 10.1034 23.7673 10.1815 23.7673Z" fill="white"/>
<path d="M18.8414 20.9857L18.7048 14.6405C18.7048 14.5331 18.6462 14.4355 18.5584 14.3769C18.5095 14.3476 18.451 14.3184 18.3826 14.3184C18.3241 14.3184 18.2655 14.3379 18.2069 14.3672C18.1191 14.4257 18.0605 14.5234 18.0605 14.6307V14.6893L17.9434 20.9759L18.0605 23.5237V23.5335C18.0605 23.6018 18.0898 23.6702 18.1386 23.719C18.1972 23.7873 18.285 23.8361 18.3826 23.8361C18.4705 23.8361 18.5486 23.7971 18.6072 23.7483C18.6657 23.6897 18.7048 23.6116 18.7048 23.5237L18.7145 23.2699L18.8414 20.9857Z" fill="white"/>
<path d="M11.3435 18.4374C11.3338 18.3398 11.2654 18.2715 11.1776 18.2715C11.0897 18.2715 11.0116 18.3398 11.0116 18.4374L10.8066 20.9755L11.0116 23.6405C11.0214 23.7381 11.0897 23.8064 11.1776 23.8064C11.2654 23.8064 11.3435 23.7381 11.3435 23.6405L11.5778 20.9755L11.3435 18.4374Z" fill="white"/>
<path d="M12.1834 16.6602C12.0858 16.6602 11.998 16.7383 11.998 16.8456L11.8027 20.9749L11.998 23.6399C12.0077 23.7472 12.0858 23.8253 12.1834 23.8253C12.2811 23.8253 12.3689 23.7472 12.3689 23.6399L12.5934 20.9749L12.3689 16.8456C12.3689 16.748 12.2811 16.6602 12.1834 16.6602Z" fill="white"/>
<path d="M13.3943 23.6395L13.5993 20.9843L13.3943 15.9081C13.3845 15.791 13.2967 15.7031 13.1795 15.7031C13.0624 15.7031 12.9745 15.791 12.9648 15.9081L12.7793 20.9843L12.9648 23.6395C12.9648 23.7566 13.0624 23.8445 13.1795 23.8445C13.2967 23.8542 13.3845 23.7566 13.3943 23.6395Z" fill="white"/>
<path d="M19.6111 13.7715C19.5623 13.7422 19.5037 13.7227 19.4354 13.7227C19.3573 13.7227 19.2792 13.7519 19.2206 13.8008C19.1425 13.8593 19.0937 13.9569 19.0937 14.0643V14.1034L18.957 20.9952L19.0254 22.2642L19.0937 23.504C19.0937 23.6895 19.2499 23.8359 19.4354 23.8359C19.6208 23.8359 19.7673 23.6797 19.777 23.4942L19.9235 20.9854L19.777 14.0643C19.7673 13.9374 19.7087 13.83 19.6111 13.7715Z" fill="white"/>
<path d="M7.28309 22.4403C7.3319 22.4403 7.37095 22.4012 7.38071 22.3426L7.59547 20.976L7.38071 19.5898C7.37095 19.5312 7.3319 19.4922 7.28309 19.4922C7.23428 19.4922 7.18547 19.5312 7.18547 19.5898L7 20.976L7.18547 22.3426C7.18547 22.4012 7.23428 22.4403 7.28309 22.4403Z" fill="white"/>
<path d="M8.2108 23.2697C8.25961 23.2697 8.30842 23.2306 8.31818 23.1721L8.60127 20.9756L8.31818 18.7304C8.30842 18.6719 8.26937 18.6328 8.2108 18.6328C8.16199 18.6328 8.11318 18.6719 8.10342 18.7304L7.85938 20.9756L8.10342 23.1721C8.11318 23.2306 8.15223 23.2697 8.2108 23.2697Z" fill="white"/>
<path d="M9.18736 23.6697C9.25569 23.6697 9.3045 23.6209 9.31426 23.5428L9.57783 20.9755L9.31426 18.3105C9.3045 18.2422 9.25569 18.1836 9.18736 18.1836C9.11903 18.1836 9.07022 18.2324 9.06046 18.3105L8.82617 20.9755L9.06046 23.5428C9.07022 23.6112 9.11903 23.6697 9.18736 23.6697Z" fill="white"/>
<path d="M28.9145 17.7052C28.4948 17.7052 28.0945 17.793 27.7236 17.9395C27.4795 15.1769 25.1562 13 22.3253 13C21.6322 13 20.9586 13.1367 20.3632 13.3709C20.1289 13.4588 20.0703 13.5564 20.0703 13.7321V23.4842C20.0703 23.6697 20.2167 23.8161 20.4022 23.8356H28.9243C30.6228 23.8356 31.9992 22.4787 31.9992 20.7802C31.9895 19.0816 30.6131 17.7052 28.9145 17.7052Z" fill="white"/>
<path d="M9.45077 25.691C9.08958 25.6032 8.99197 25.5641 8.99197 25.4177C8.99197 25.3201 9.07006 25.2127 9.31411 25.2127C9.5191 25.2127 9.68505 25.3006 9.83148 25.447L10.1634 25.1249C9.94862 24.9003 9.68505 24.7637 9.33363 24.7637C8.88459 24.7637 8.5234 25.0175 8.5234 25.4275C8.5234 25.8765 8.81625 26.0132 9.23601 26.101C9.66553 26.1987 9.74363 26.267 9.74363 26.4134C9.74363 26.5891 9.61672 26.6575 9.34339 26.6575C9.12863 26.6575 8.92363 26.5794 8.75768 26.3939L8.42578 26.6867C8.60149 26.9406 8.9334 27.0967 9.30434 27.0967C9.9291 27.0967 10.1927 26.8039 10.1927 26.3744C10.2122 25.896 9.81196 25.7691 9.45077 25.691ZM11.5496 24.7734C10.9248 24.7734 10.5636 25.2518 10.5636 25.9449C10.5636 26.6379 10.9346 27.1163 11.5496 27.1163C12.1646 27.1163 12.5355 26.6379 12.5355 25.9449C12.5355 25.2518 12.1646 24.7734 11.5496 24.7734ZM11.5496 26.6575C11.1786 26.6575 11.0322 26.3451 11.0322 25.9351C11.0322 25.5251 11.1884 25.2127 11.5496 25.2127C11.9205 25.2127 12.0669 25.5251 12.0669 25.9351C12.0669 26.3451 11.9107 26.6575 11.5496 26.6575ZM14.3707 26.0815C14.3707 26.4427 14.195 26.6672 13.9022 26.6672C13.6093 26.6672 13.4336 26.4329 13.4336 26.0718V24.8027H12.9748V26.0815C12.9748 26.7453 13.3457 27.1163 13.8924 27.1163C14.4683 27.1163 14.81 26.7356 14.81 26.0815V24.8125H14.3512V26.0815H14.3707ZM16.7819 25.7691C16.7819 25.896 16.7917 26.1791 16.7917 26.267C16.7624 26.2084 16.6843 26.0913 16.6355 26.0132L15.8252 24.8125H15.386V27.087H15.835V26.0815C15.835 25.9546 15.8252 25.6715 15.8252 25.5837C15.8545 25.6422 15.9326 25.7594 15.9814 25.8375L16.8112 27.0772H17.2212V24.8027H16.7721V25.7691H16.7819ZM18.5293 24.8027H17.8166V27.0772H18.4902C19.0759 27.0772 19.6519 26.7356 19.6519 25.9449C19.6519 25.1053 19.1735 24.8027 18.5293 24.8027ZM18.4902 26.6379H18.2657V25.2518H18.5097C18.9881 25.2518 19.1931 25.486 19.1931 25.9449C19.1931 26.3548 18.9685 26.6379 18.4902 26.6379ZM21.0576 25.2225C21.2626 25.2225 21.3895 25.3103 21.4773 25.4665L21.8971 25.2713C21.7507 24.9784 21.4968 24.7637 21.0673 24.7637C20.4719 24.7637 20.0619 25.242 20.0619 25.9351C20.0619 26.6477 20.4621 27.1065 21.0576 27.1065C21.4676 27.1065 21.7409 26.9113 21.8971 26.5891L21.5164 26.3646C21.3992 26.5696 21.2723 26.6575 21.0673 26.6575C20.7257 26.6575 20.5304 26.3451 20.5304 25.9351C20.5304 25.5153 20.7257 25.2225 21.0576 25.2225ZM22.7464 24.8027H22.2876V27.0772H23.6542V26.6282H22.7464V24.8027ZM24.8549 24.7734C24.2302 24.7734 23.869 25.2518 23.869 25.9449C23.869 26.6379 24.2399 27.1163 24.8549 27.1163C25.4797 27.1163 25.8409 26.6379 25.8409 25.9449C25.8409 25.2518 25.4797 24.7734 24.8549 24.7734ZM24.8549 26.6575C24.484 26.6575 24.3375 26.3451 24.3375 25.9351C24.3375 25.5251 24.4937 25.2127 24.8549 25.2127C25.2259 25.2127 25.3723 25.5251 25.3723 25.9351C25.3723 26.3451 25.2259 26.6575 24.8549 26.6575ZM27.6761 26.0815C27.6761 26.4427 27.5004 26.6672 27.2075 26.6672C26.9146 26.6672 26.7389 26.4329 26.7389 26.0718V24.8027H26.2801V26.0815C26.2801 26.7453 26.6511 27.1163 27.1977 27.1163C27.7737 27.1163 28.1154 26.7356 28.1154 26.0815V24.8125H27.6565V26.0815H27.6761ZM29.4137 24.8027H28.7011V27.0772H29.3746C29.9603 27.0772 30.5363 26.7356 30.5363 25.9449C30.5363 25.1053 30.058 24.8027 29.4137 24.8027ZM29.3746 26.6379H29.1599V25.2518H29.4039C29.8822 25.2518 30.0775 25.486 30.0775 25.9449C30.0775 26.3548 29.853 26.6379 29.3746 26.6379Z" fill="white"/>
</svg>
