<svg width="80" height="17" viewBox="0 0 80 17" fill="none" xmlns="http://www.w3.org/2000/svg">
<path d="M5.49542 5.39328L1.24209 6.00995L1.16675 6.02528C1.05271 6.05556 0.948751 6.11555 0.865483 6.19915C0.782214 6.28274 0.722624 6.38694 0.692796 6.5011C0.662969 6.61526 0.663973 6.73529 0.695706 6.84893C0.72744 6.96257 0.788766 7.06576 0.873421 7.14795L3.95475 10.1473L3.22809 14.3839L3.21942 14.4573C3.21244 14.5752 3.23693 14.6929 3.29039 14.7983C3.34384 14.9037 3.42434 14.9929 3.52365 15.057C3.62295 15.121 3.73748 15.1575 3.85552 15.1627C3.97356 15.1679 4.09086 15.1416 4.19542 15.0866L7.99942 13.0866L11.7948 15.0866L11.8614 15.1173C11.9715 15.1606 12.0911 15.1739 12.2079 15.1558C12.3248 15.1377 12.4347 15.0888 12.5265 15.0141C12.6182 14.9395 12.6885 14.8418 12.73 14.731C12.7715 14.6203 12.7828 14.5005 12.7628 14.3839L12.0354 10.1473L15.1181 7.14728L15.1701 7.09061C15.2444 6.99913 15.2931 6.88958 15.3112 6.77314C15.3294 6.65671 15.3164 6.53753 15.2735 6.42777C15.2306 6.318 15.1594 6.22157 15.0671 6.14829C14.9748 6.07501 14.8647 6.02751 14.7481 6.01061L10.4948 5.39328L8.59342 1.53995C8.53841 1.4283 8.45323 1.33429 8.34755 1.26855C8.24186 1.20281 8.11989 1.16797 7.99542 1.16797C7.87096 1.16797 7.74898 1.20281 7.6433 1.26855C7.53761 1.33429 7.45244 1.4283 7.39742 1.53995L5.49542 5.39328Z" fill="#E87B40"/>
<path d="M21.4954 5.39328L17.2421 6.00995L17.1668 6.02528C17.0527 6.05556 16.9488 6.11555 16.8655 6.19915C16.7822 6.28274 16.7226 6.38694 16.6928 6.5011C16.663 6.61526 16.664 6.73529 16.6957 6.84893C16.7274 6.96257 16.7888 7.06576 16.8734 7.14795L19.9548 10.1473L19.2281 14.3839L19.2194 14.4573C19.2124 14.5752 19.2369 14.6929 19.2904 14.7983C19.3438 14.9037 19.4243 14.9929 19.5236 15.057C19.6229 15.121 19.7375 15.1575 19.8555 15.1627C19.9736 15.1679 20.0909 15.1416 20.1954 15.0866L23.9994 13.0866L27.7948 15.0866L27.8614 15.1173C27.9715 15.1606 28.0911 15.1739 28.2079 15.1558C28.3248 15.1377 28.4347 15.0888 28.5265 15.0141C28.6182 14.9395 28.6885 14.8418 28.73 14.731C28.7715 14.6203 28.7828 14.5005 28.7628 14.3839L28.0354 10.1473L31.1181 7.14728L31.1701 7.09061C31.2444 6.99913 31.2931 6.88958 31.3112 6.77314C31.3294 6.65671 31.3164 6.53753 31.2735 6.42777C31.2306 6.318 31.1594 6.22157 31.0671 6.14829C30.9748 6.07501 30.8647 6.02751 30.7481 6.01061L26.4948 5.39328L24.5934 1.53995C24.5384 1.4283 24.4532 1.33429 24.3475 1.26855C24.2419 1.20281 24.1199 1.16797 23.9954 1.16797C23.871 1.16797 23.749 1.20281 23.6433 1.26855C23.5376 1.33429 23.4524 1.4283 23.3974 1.53995L21.4954 5.39328Z" fill="#E87B40"/>
<path d="M37.4954 5.39328L33.2421 6.00995L33.1668 6.02528C33.0527 6.05556 32.9488 6.11555 32.8655 6.19915C32.7822 6.28274 32.7226 6.38694 32.6928 6.5011C32.663 6.61526 32.664 6.73529 32.6957 6.84893C32.7274 6.96257 32.7888 7.06576 32.8734 7.14795L35.9548 10.1473L35.2281 14.3839L35.2194 14.4573C35.2124 14.5752 35.2369 14.6929 35.2904 14.7983C35.3438 14.9037 35.4243 14.9929 35.5236 15.057C35.6229 15.121 35.7375 15.1575 35.8555 15.1627C35.9736 15.1679 36.0909 15.1416 36.1954 15.0866L39.9994 13.0866L43.7948 15.0866L43.8614 15.1173C43.9715 15.1606 44.0911 15.1739 44.2079 15.1558C44.3248 15.1377 44.4347 15.0888 44.5265 15.0141C44.6182 14.9395 44.6885 14.8418 44.73 14.731C44.7715 14.6203 44.7828 14.5005 44.7628 14.3839L44.0354 10.1473L47.1181 7.14728L47.1701 7.09061C47.2444 6.99913 47.2931 6.88958 47.3112 6.77314C47.3294 6.65671 47.3164 6.53753 47.2735 6.42777C47.2306 6.318 47.1594 6.22157 47.0671 6.14829C46.9748 6.07501 46.8647 6.02751 46.7481 6.01061L42.4948 5.39328L40.5934 1.53995C40.5384 1.4283 40.4532 1.33429 40.3475 1.26855C40.2419 1.20281 40.1199 1.16797 39.9954 1.16797C39.871 1.16797 39.749 1.20281 39.6433 1.26855C39.5376 1.33429 39.4524 1.4283 39.3974 1.53995L37.4954 5.39328Z" fill="#E87B40"/>
<path d="M53.4954 5.39328L49.2421 6.00995L49.1668 6.02528C49.0527 6.05556 48.9488 6.11555 48.8655 6.19915C48.7822 6.28274 48.7226 6.38694 48.6928 6.5011C48.663 6.61526 48.664 6.73529 48.6957 6.84893C48.7274 6.96257 48.7888 7.06576 48.8734 7.14795L51.9548 10.1473L51.2281 14.3839L51.2194 14.4573C51.2124 14.5752 51.2369 14.6929 51.2904 14.7983C51.3438 14.9037 51.4243 14.9929 51.5236 15.057C51.6229 15.121 51.7375 15.1575 51.8555 15.1627C51.9736 15.1679 52.0909 15.1416 52.1954 15.0866L55.9994 13.0866L59.7948 15.0866L59.8614 15.1173C59.9715 15.1606 60.0911 15.1739 60.2079 15.1558C60.3248 15.1377 60.4347 15.0888 60.5265 15.0141C60.6182 14.9395 60.6885 14.8418 60.73 14.731C60.7715 14.6203 60.7828 14.5005 60.7628 14.3839L60.0354 10.1473L63.1181 7.14728L63.1701 7.09061C63.2444 6.99913 63.2931 6.88958 63.3112 6.77314C63.3294 6.65671 63.3164 6.53753 63.2735 6.42777C63.2306 6.318 63.1594 6.22157 63.0671 6.14829C62.9748 6.07501 62.8647 6.02751 62.7481 6.01061L58.4948 5.39328L56.5934 1.53995C56.5384 1.4283 56.4532 1.33429 56.3475 1.26855C56.2419 1.20281 56.1199 1.16797 55.9954 1.16797C55.871 1.16797 55.749 1.20281 55.6433 1.26855C55.5376 1.33429 55.4524 1.4283 55.3974 1.53995L53.4954 5.39328Z" fill="#E87B40"/>
<path d="M69.4954 5.39328L65.2421 6.00995L65.1668 6.02528C65.0527 6.05556 64.9488 6.11555 64.8655 6.19915C64.7822 6.28274 64.7226 6.38694 64.6928 6.5011C64.663 6.61526 64.664 6.73529 64.6957 6.84893C64.7274 6.96257 64.7888 7.06576 64.8734 7.14795L67.9548 10.1473L67.2281 14.3839L67.2194 14.4573C67.2124 14.5752 67.2369 14.6929 67.2904 14.7983C67.3438 14.9037 67.4243 14.9929 67.5236 15.057C67.6229 15.121 67.7375 15.1575 67.8555 15.1627C67.9736 15.1679 68.0909 15.1416 68.1954 15.0866L71.9994 13.0866L75.7948 15.0866L75.8614 15.1173C75.9715 15.1606 76.0911 15.1739 76.2079 15.1558C76.3248 15.1377 76.4347 15.0888 76.5265 15.0141C76.6182 14.9395 76.6885 14.8418 76.73 14.731C76.7715 14.6203 76.7828 14.5005 76.7628 14.3839L76.0354 10.1473L79.1181 7.14728L79.1701 7.09061C79.2444 6.99913 79.2931 6.88958 79.3112 6.77314C79.3294 6.65671 79.3164 6.53753 79.2735 6.42777C79.2306 6.318 79.1594 6.22157 79.0671 6.14829C78.9748 6.07501 78.8647 6.02751 78.7481 6.01061L74.4948 5.39328L72.5934 1.53995C72.5384 1.4283 72.4532 1.33429 72.3475 1.26855C72.2419 1.20281 72.1199 1.16797 71.9954 1.16797C71.871 1.16797 71.749 1.20281 71.6433 1.26855C71.5376 1.33429 71.4524 1.4283 71.3974 1.53995L69.4954 5.39328Z" fill="#E87B40"/>
</svg>
