<svg width="40" height="40" viewBox="0 0 40 40" fill="none" xmlns="http://www.w3.org/2000/svg">
<rect width="40" height="40" rx="20" fill="#FF0000"/>
<path d="M29.5809 15.1863C29.3505 14.3253 28.6738 13.6486 27.8128 13.4182C26.2538 13 19.9995 13 19.9995 13C19.9995 13 13.7453 13 12.1863 13.4182C11.3253 13.6486 10.6486 14.3253 10.4182 15.1863C10 16.7453 10 20 10 20C10 20 10 23.2547 10.4182 24.8138C10.6486 25.6748 11.3253 26.3514 12.1863 26.5818C13.7453 27 19.9995 27 19.9995 27C19.9995 27 26.2538 27 27.8128 26.5818C28.6738 26.3514 29.3505 25.6748 29.5809 24.8138C29.9991 23.2547 29.9991 20 29.9991 20C29.9991 20 29.9974 16.7453 29.5809 15.1863Z" fill="white"/>
<path d="M17.998 22.999L23.1937 19.9995L17.998 17V22.999Z" fill="#FF0000"/>
</svg>
